<?xml version="1.0" standalone="no"?>
<!DOCTYPE svg PUBLIC "-//W3C//DTD SVG 20010904//EN"
 "http://www.w3.org/TR/2001/REC-SVG-20010904/DTD/svg10.dtd">
<svg version="1.0" xmlns="http://www.w3.org/2000/svg"
 width="853.000000pt" height="1280.000000pt" viewBox="0 0 853.000000 1280.000000"
 preserveAspectRatio="xMidYMid meet">

<g transform="translate(0.000000,1280.000000) scale(0.100000,-0.100000)"
fill="#000000" stroke="none">
<path d="M3860 10779 c-522 -61 -1042 -265 -1475 -577 -766 -552 -1307 -1490
-1420 -2460 -76 -651 40 -1348 328 -1977 60 -130 77 -162 173 -331 l64 -110 4
-165 c13 -453 123 -813 362 -1174 186 -281 423 -519 789 -790 136 -101 221
-160 542 -380 57 -38 161 -110 232 -159 l130 -88 55 26 c30 14 67 26 81 26 16
0 25 5 23 12 -6 17 -325 249 -558 406 -405 271 -534 369 -729 551 -325 301
-534 609 -646 946 -39 118 -79 299 -89 405 l-7 65 33 -39 c254 -305 446 -492
688 -667 440 -320 906 -508 1450 -586 147 -21 559 -24 710 -5 282 36 494 90
759 194 123 48 348 157 423 204 21 13 40 24 43 24 3 0 47 28 98 61 308 206
546 422 781 711 39 48 72 85 74 83 9 -9 -31 -251 -57 -345 -108 -391 -287
-681 -616 -1001 -164 -159 -383 -334 -645 -514 -390 -268 -680 -479 -680 -495
0 -4 21 -10 48 -14 26 -4 65 -15 86 -24 l40 -18 270 188 c149 104 324 225 389
271 214 148 463 348 616 493 263 250 483 571 596 869 96 254 135 449 142 718
l6 199 47 79 c62 102 186 354 243 494 174 425 265 817 289 1247 53 934 -255
1837 -869 2548 -467 540 -1077 905 -1768 1055 -300 66 -725 83 -1055 44z m786
-53 c577 -82 1126 -315 1556 -658 137 -109 338 -306 458 -449 771 -911 1027
-2100 703 -3259 -43 -155 -95 -309 -140 -420 -477 -1156 -1424 -1942 -2548
-2115 -67 -10 -199 -19 -335 -22 -253 -5 -472 14 -695 62 -485 104 -947 334
-1350 669 -166 138 -417 404 -525 555 -25 35 -54 75 -66 90 -40 52 -182 278
-242 386 -233 420 -379 884 -438 1395 -23 193 -23 554 -1 750 48 424 161 809
350 1190 379 763 985 1338 1712 1623 276 108 527 172 810 207 186 24 576 22
751 -4z"/>
<path d="M4215 10550 c-3 -5 5 -16 19 -25 30 -20 42 -51 91 -225 20 -74 57
-205 82 -290 25 -85 52 -184 62 -219 9 -36 21 -66 27 -68 14 -5 49 88 100 262
21 72 41 134 44 138 4 4 42 -79 84 -185 92 -231 87 -223 114 -209 21 11 39 57
71 181 33 131 102 381 132 482 22 74 36 102 54 114 14 9 25 20 25 25 0 5 -47
9 -105 9 -58 0 -105 -2 -105 -5 0 -3 9 -14 20 -25 30 -30 32 -14 -45 -330 -14
-58 -25 -114 -25 -125 0 -12 -3 -15 -9 -9 -8 7 -68 144 -135 307 -8 20 -21 37
-28 37 -8 0 -36 -70 -72 -181 -50 -151 -61 -177 -68 -158 -5 13 -27 92 -50
174 -22 83 -48 179 -58 214 l-19 63 24 23 c14 12 22 25 18 28 -10 11 -241 8
-248 -3z"/>
<path d="M3630 10540 c-8 -5 -12 -10 -10 -12 3 -2 14 -8 25 -14 19 -11 20 -23
23 -368 l2 -357 -26 -26 c-20 -20 -23 -28 -12 -35 7 -5 121 -7 253 -6 191 3
247 7 275 19 109 49 167 160 136 264 -21 67 -53 104 -116 134 l-56 27 46 41
c79 70 97 179 43 252 -57 75 -125 91 -379 90 -105 0 -197 -4 -204 -9z m334
-59 c70 -12 106 -53 106 -121 0 -111 -49 -160 -162 -160 l-68 0 0 138 c0 76 3
142 7 145 8 9 55 8 117 -2z m65 -379 c50 -25 74 -63 79 -126 5 -67 -24 -136
-66 -156 -15 -7 -66 -15 -114 -18 l-88 -4 0 161 0 161 78 0 c54 0 87 -5 111
-18z"/>
<path d="M4938 9727 c-14 -11 -4 -16 70 -37 131 -36 160 -49 177 -83 l15 -30
-38 6 c-20 3 -80 14 -132 24 -87 16 -156 18 -780 18 -673 0 -687 -1 -784 -23
-125 -28 -136 -28 -136 1 0 29 34 46 148 77 45 12 82 26 82 30 0 13 -57 22
-92 15 -47 -9 -183 -53 -253 -82 -289 -118 -606 -342 -817 -577 -360 -401
-574 -874 -633 -1399 -29 -256 -15 -634 30 -837 25 -110 26 -116 16 -100 -4 8
-14 39 -21 69 -9 36 -15 49 -21 40 -7 -11 -9 -10 -9 4 0 24 -21 22 -27 -3 -3
-13 -13 -20 -27 -19 -17 1 -17 2 -3 6 24 6 21 23 -4 18 -15 -3 -19 0 -15 10 3
8 1 15 -4 15 -6 0 -10 -11 -10 -24 0 -15 -7 -27 -19 -31 -13 -4 -17 -13 -15
-33 2 -17 1 -20 -3 -7 -3 11 -10 23 -16 27 -7 4 0 11 16 17 19 7 27 17 26 33
l0 23 -9 -22 c-5 -12 -18 -24 -29 -28 -12 -3 -21 -13 -21 -21 0 -8 -4 -12 -10
-9 -5 3 -10 2 -10 -4 0 -5 6 -12 13 -14 9 -4 9 -6 -1 -6 -8 -1 -17 9 -20 21
-5 22 -6 22 -17 -6 l-12 -29 -11 32 c-18 50 -33 38 -27 -21 l5 -53 -15 48
c-18 54 -26 60 -23 16 2 -19 -2 -34 -10 -36 -9 -4 -11 2 -7 20 4 15 2 28 -6
33 -9 5 -10 2 -6 -9 4 -11 1 -17 -8 -17 -8 0 -15 -8 -15 -17 0 -13 3 -14 8 -6
5 8 12 2 20 -20 10 -27 9 -29 -2 -15 -7 10 -15 15 -19 12 -3 -3 -9 5 -13 18
-8 21 -9 20 -14 -12 -5 -33 -7 -30 -19 33 -7 37 -17 67 -21 67 -5 0 -4 -15 1
-32 13 -47 21 -139 9 -113 -5 11 -9 31 -9 45 -1 20 -3 22 -11 10 -5 -8 -10
-11 -10 -6 0 5 -9 1 -20 -9 -11 -10 -20 -13 -20 -7 0 7 -5 12 -11 12 -8 0 -8
-4 -2 -12 6 -7 13 -26 17 -42 6 -25 5 -28 -7 -18 -8 7 -18 31 -22 55 -12 63
-13 68 -19 75 -9 9 -7 -30 4 -67 5 -19 8 -37 5 -39 -7 -7 -29 50 -26 67 1 8
-9 1 -22 -15 -14 -16 -22 -33 -18 -39 14 -18 20 -45 11 -45 -6 0 -10 9 -10 20
0 11 -5 20 -11 20 -7 0 -9 -10 -4 -27 5 -21 3 -25 -5 -17 -6 6 -12 21 -13 33
-1 21 -17 31 -17 10 0 -5 -5 -7 -11 -3 -8 4 -9 -1 -4 -17 5 -19 4 -21 -4 -9
-6 8 -11 26 -11 39 0 13 -3 22 -6 18 -23 -22 105 -499 201 -752 42 -112 188
-401 260 -514 170 -271 331 -475 522 -668 267 -269 507 -446 813 -599 129 -64
187 -84 92 -31 -26 15 -40 27 -32 27 11 1 10 4 -4 15 -23 17 -4 20 25 5 10 -6
19 -8 19 -6 0 3 -12 12 -27 20 -19 10 -23 15 -11 16 9 0 21 7 26 15 7 13 14
14 36 5 44 -17 44 -12 -2 16 -35 21 -41 28 -31 40 15 19 23 18 15 -2 -3 -8 -2
-13 3 -9 5 3 12 -1 15 -7 3 -7 3 -3 0 10 -3 13 0 29 6 37 7 8 10 22 6 31 -5
12 -1 14 17 9 17 -5 19 -4 7 4 -12 8 -12 11 -1 11 21 0 -6 28 -32 33 -12 2
527 5 1198 5 736 0 1211 -3 1198 -8 -13 -5 -23 -15 -23 -21 0 -8 5 -7 16 2 14
11 16 10 14 -6 -4 -37 0 -45 23 -46 14 0 17 -3 7 -6 -8 -3 -23 -14 -34 -24
-19 -18 -19 -18 10 -10 25 7 30 5 31 -9 1 -10 -8 -22 -20 -28 l-22 -11 23 0
c12 -1 22 -5 22 -11 0 -5 8 -10 18 -11 9 0 -2 -7 -26 -16 -26 -9 -40 -19 -35
-26 5 -8 8 -8 11 1 4 14 32 16 32 3 0 -5 -6 -12 -12 -14 -8 -4 -7 -6 4 -6 9
-1 18 7 20 17 3 15 4 16 10 0 5 -12 -2 -20 -25 -32 -18 -8 -26 -16 -19 -16 9
0 8 -7 -4 -25 -9 -14 -13 -25 -10 -25 3 0 57 25 119 56 483 243 896 606 1231
1084 243 346 414 712 521 1114 22 84 34 149 30 165 -3 17 -2 21 3 13 6 -9 15
16 25 74 18 100 15 128 -4 36 -14 -65 -33 -76 -24 -14 5 33 4 34 -6 15 -7 -13
-16 -23 -21 -23 -5 0 -4 9 2 20 9 17 8 20 -10 20 -17 0 -20 4 -15 23 5 17 4
19 -4 7 -6 -8 -11 -25 -11 -37 0 -12 -5 -25 -11 -29 -7 -4 -9 0 -6 12 3 11 8
35 11 54 l6 35 -20 -40 c-16 -32 -20 -35 -20 -17 0 14 -4 21 -11 17 -7 -5 -9
6 -5 32 l5 38 -13 -40 -13 -39 -6 32 c-4 18 -11 32 -17 32 -5 0 -9 -5 -7 -11
1 -6 -3 -13 -10 -16 -9 -3 -9 5 -2 32 6 20 8 39 5 43 -3 3 -9 -9 -12 -26 -4
-18 -11 -32 -15 -32 -5 0 -7 12 -4 28 4 22 4 24 -4 7 -5 -11 -11 -31 -12 -45
-1 -20 -3 -18 -8 10 -4 21 -12 34 -20 32 -9 -2 -10 4 -6 19 5 15 4 19 -4 15
-6 -4 -11 -14 -11 -22 0 -8 -7 -14 -16 -14 -14 0 -14 3 -4 15 10 12 10 15 -4
15 -9 0 -16 8 -17 18 0 10 -3 12 -6 5 -2 -7 -12 -13 -21 -13 -14 0 -14 2 -3 9
12 8 11 12 -4 28 -18 17 -18 17 -12 0 4 -11 1 -20 -9 -24 -8 -3 -13 -12 -10
-20 3 -8 2 -12 -3 -8 -5 3 -11 0 -13 -6 -2 -6 -9 1 -16 16 -7 14 -8 23 -2 20
5 -3 10 -2 10 3 0 6 -7 12 -15 16 -8 3 -15 1 -15 -4 0 -6 -7 -10 -15 -10 -8 0
-15 8 -15 18 0 15 2 15 11 2 9 -12 10 -12 5 3 -3 10 -6 22 -6 25 -1 4 -7 -4
-15 -18 l-14 -25 -1 25 c-1 20 -4 17 -14 -15 -9 -32 -13 -36 -19 -22 -10 26
-9 29 5 21 7 -4 8 -3 4 4 -12 19 -24 14 -34 -15 -7 -19 -11 -22 -11 -10 -1 10
-6 15 -11 12 -6 -4 -8 8 -6 32 3 21 2 30 0 21 -3 -10 -9 -18 -13 -18 -5 0 -7
-12 -4 -27 3 -26 3 -27 -6 -5 -11 24 -27 31 -17 7 3 -8 -1 -20 -8 -27 -7 -7
-16 -26 -20 -42 -15 -62 -13 -16 4 67 101 491 44 1058 -155 1527 -251 594
-713 1053 -1303 1295 -104 42 -246 85 -282 85 -8 -1 -22 -6 -32 -13z m37 -467
c136 -11 253 -39 328 -77 29 -14 82 -56 120 -94 55 -55 77 -87 117 -171 26
-57 63 -148 81 -202 36 -115 36 -115 95 12 31 69 36 74 91 100 67 31 185 42
233 22 35 -14 63 -69 54 -105 -15 -60 -123 -115 -226 -115 -85 0 -141 -37
-172 -111 l-15 -37 82 -47 c174 -102 292 -252 361 -460 56 -172 70 -264 70
-480 1 -168 -2 -210 -18 -262 -19 -64 -71 -137 -105 -148 -16 -5 -19 -20 -23
-128 -6 -142 -19 -182 -74 -223 -37 -29 -38 -29 -202 -32 -190 -4 -234 6 -278
63 -22 29 -43 111 -44 173 0 9 -61 12 -269 12 l-269 0 -68 -32 -69 -33 -525 0
-525 0 -62 33 -62 32 -270 0 -269 0 -6 -27 c-3 -16 -8 -47 -11 -70 -8 -49 -37
-97 -78 -127 -26 -19 -45 -21 -194 -24 -192 -4 -235 6 -280 65 -26 34 -28 43
-31 168 l-4 133 -43 36 c-24 20 -55 59 -69 88 -43 90 -52 325 -20 558 10 75
61 251 93 322 72 161 212 312 359 388 48 25 49 36 7 101 -28 44 -78 69 -138
69 -64 0 -164 34 -198 66 -24 23 -29 36 -29 76 0 44 3 50 32 68 17 10 48 22
69 25 73 13 217 -32 240 -75 5 -8 24 -50 44 -92 20 -43 39 -78 43 -78 4 0 22
47 40 103 121 381 274 507 653 536 152 12 1294 12 1434 1z m-3216 -2460 c0 -9
-4 -8 -9 5 -5 11 -9 27 -9 35 0 9 4 8 9 -5 5 -11 9 -27 9 -35z m-271 -76 c0
-17 -3 -22 -8 -13 -5 6 -6 18 -3 26 8 19 11 16 11 -13z m-248 -16 c0 -4 -7 -8
-15 -8 -8 0 -15 4 -15 8 0 5 7 9 15 9 8 0 15 -4 15 -9z m109 -5 c0 -11 -3 -13
-6 -5 -10 24 -25 12 -19 -15 5 -23 4 -25 -5 -10 -6 10 -8 25 -5 33 8 20 36 18
35 -3z m5716 7 c3 -6 -1 -7 -9 -4 -18 7 -21 14 -7 14 6 0 13 -4 16 -10z m72
-12 c-3 -8 -6 -5 -6 6 -1 11 2 17 5 13 3 -3 4 -12 1 -19z m44 -14 c-5 -16 -10
-21 -10 -12 -1 18 10 51 15 45 2 -1 -1 -16 -5 -33z m48 -64 c0 -10 -3 -8 -9 5
-12 27 -12 43 0 25 5 -8 9 -22 9 -30z m71 10 c0 -11 -4 -20 -9 -20 -5 0 -7 9
-4 20 3 11 7 20 9 20 2 0 4 -9 4 -20z m-160 -40 c10 -6 2 -8 -28 -7 -37 2 -42
0 -42 -19 0 -20 -6 -23 -67 -27 -104 -7 -5480 -8 -5497 -1 -9 3 -16 10 -16 15
0 11 23 7 32 -6 4 -5 8 -1 8 11 0 15 -10 23 -37 31 -27 7 797 11 2797 12 1744
0 2841 -3 2850 -9z m-2444 -285 c66 -33 109 -93 130 -182 13 -55 15 -108 11
-278 -5 -249 -16 -296 -81 -361 -49 -50 -100 -66 -206 -67 -137 0 -211 38
-257 132 -28 56 -28 57 -31 296 -4 277 5 335 64 403 55 64 102 82 220 82 87 0
107 -3 150 -25z m-2561 -9 c82 -35 114 -92 115 -200 0 -87 -25 -145 -75 -172
l-35 -18 28 -14 c74 -39 102 -94 102 -207 0 -136 -52 -213 -165 -245 -25 -7
-102 -10 -200 -8 l-160 3 -2 430 c-1 314 1 433 10 443 17 22 327 12 382 -12z
m596 -2 c12 -32 209 -840 209 -856 0 -5 -34 -8 -75 -8 -87 0 -82 -6 -110 123
l-17 77 -104 0 c-99 0 -104 -1 -108 -22 -3 -13 -13 -58 -22 -100 l-16 -78 -74
0 c-41 0 -74 2 -74 5 0 7 24 111 55 240 54 219 124 513 135 565 7 30 17 61 23
68 6 8 37 12 88 12 77 0 80 -1 90 -26z m704 -6 c3 -18 4 -186 2 -373 -3 -295
-6 -345 -20 -380 -37 -84 -92 -114 -210 -115 -152 0 -207 56 -207 213 l0 58
63 -3 c61 -3 62 -4 65 -33 5 -54 12 -74 34 -95 26 -24 65 -25 93 -4 19 14 20
28 23 377 1 199 4 368 7 375 3 8 27 12 74 12 l70 0 6 -32z m542 -4 c69 -35
115 -91 140 -172 14 -45 18 -92 17 -217 0 -236 -26 -331 -109 -402 -61 -52
-117 -64 -296 -61 l-154 3 -3 434 c-2 341 1 437 10 443 7 5 86 7 175 5 155 -4
165 -6 220 -33z m1138 27 c3 -5 5 -176 6 -380 l0 -371 145 0 144 0 0 -65 0
-65 -220 0 -220 0 0 438 c0 241 3 442 7 445 10 11 131 8 138 -2z m534 -5 c8
-9 10 -134 9 -442 l-3 -429 -77 -3 -78 -3 0 439 c0 241 3 442 7 445 13 13 130
8 142 -7z m245 -28 c8 -24 36 -107 62 -186 25 -79 48 -141 51 -138 3 3 31 80
62 173 31 92 60 174 64 181 12 17 136 17 143 -1 3 -8 -40 -134 -96 -282 l-100
-267 0 -164 0 -164 -75 0 -75 0 0 161 c0 161 0 162 -35 253 -20 50 -47 120
-60 156 -14 36 -45 118 -70 183 -26 64 -43 122 -40 127 3 6 39 10 80 10 l73 0
16 -42z m735 10 c5 -18 48 -190 95 -383 47 -192 92 -375 100 -405 8 -30 12
-58 10 -62 -3 -4 -38 -8 -79 -8 l-73 0 -15 68 c-8 37 -18 82 -22 100 l-7 32
-103 0 -104 0 -10 -37 c-5 -21 -13 -58 -16 -83 -12 -76 -17 -80 -95 -80 -42 0
-70 4 -70 11 0 5 25 114 56 242 31 128 60 251 65 274 4 24 15 66 24 95 8 29
19 77 25 106 5 29 17 77 25 107 l16 55 84 0 83 0 11 -32z m-3417 -1050 c86
-25 113 -107 106 -317 -5 -153 -23 -208 -78 -236 -79 -41 -189 -26 -239 31
-38 43 -44 83 -39 275 3 132 6 159 23 187 38 62 134 88 227 60z m1477 -6 c43
-21 68 -56 77 -104 l6 -38 -36 0 c-20 0 -39 0 -43 -1 -4 0 -11 15 -17 33 -20
60 -110 64 -130 5 -18 -50 2 -78 88 -124 89 -48 112 -66 132 -105 19 -37 18
-116 -4 -157 -30 -61 -127 -94 -210 -72 -58 16 -89 47 -104 104 -14 55 -5 69
46 65 23 -2 31 -10 40 -38 13 -40 49 -63 86 -54 60 14 78 69 39 118 -12 15
-47 40 -79 56 -31 16 -71 41 -88 55 -53 45 -64 133 -25 208 30 59 151 86 222
49z m1039 -9 c60 -45 67 -71 67 -263 0 -196 -10 -235 -69 -271 -68 -42 -184
-33 -237 17 -40 38 -49 86 -49 260 0 193 13 232 82 265 56 26 166 22 206 -8z
m-3370 -40 c5 -32 20 -122 33 -200 l23 -142 27 137 c14 75 30 164 35 197 l9
60 52 3 c58 3 55 7 72 -93 6 -33 20 -116 33 -185 l22 -125 13 80 c8 44 22 134
32 200 l17 120 47 3 c40 3 47 0 47 -15 0 -17 -22 -144 -73 -428 l-22 -120 -57
-3 c-53 -3 -58 -1 -62 20 -10 45 -35 184 -47 258 -18 113 -25 126 -34 55 -4
-33 -19 -121 -34 -195 l-26 -135 -55 0 -55 0 -17 85 c-43 221 -68 360 -74 418
l-7 62 45 0 45 0 11 -57z m1394 33 c37 -24 58 -75 58 -140 0 -67 -18 -115 -53
-142 l-25 -19 48 -110 c27 -60 49 -116 50 -123 0 -9 -14 -12 -51 -10 l-50 3
-31 75 c-63 159 -58 150 -95 150 l-33 0 0 -116 0 -115 -47 3 -48 3 -3 270 c-1
148 0 276 3 284 8 21 241 11 277 -13z m320 -98 l3 -123 70 120 70 120 53 3
c28 2 52 0 52 -3 0 -4 -29 -54 -65 -111 -36 -57 -68 -110 -71 -117 -3 -8 29
-83 70 -167 41 -84 73 -157 70 -162 -3 -4 -25 -8 -50 -8 l-45 0 -54 115 c-30
63 -56 115 -59 115 -2 0 -14 -15 -25 -34 -17 -27 -21 -50 -21 -115 l0 -82 -47
3 -48 3 -3 283 -2 282 50 0 49 0 3 -122z m958 7 l0 -115 75 0 75 0 0 115 0
115 50 0 50 0 0 -286 0 -285 -47 3 -48 3 -3 123 -3 122 -74 0 -74 0 -3 -122
-3 -123 -45 0 -45 0 -3 283 -2 282 50 0 50 0 0 -115z m1173 92 c50 -32 62 -63
62 -157 0 -66 -4 -92 -18 -113 -30 -47 -74 -67 -144 -67 l-62 0 -3 -102 -3
-103 -45 0 -45 0 -3 284 -2 283 118 -3 c91 -3 124 -8 145 -22z m-743 -832 c0
-8 -4 -15 -10 -15 -5 0 -7 7 -4 15 4 8 8 15 10 15 2 0 4 -7 4 -15z m-2440 -19
c0 -2 -7 -7 -16 -10 -8 -3 -12 -2 -9 4 6 10 25 14 25 6z m-45 -116 c3 -5 2
-10 -4 -10 -5 0 -13 5 -16 10 -3 6 -2 10 4 10 5 0 13 -4 16 -10z m2537 -87
c-6 -2 -10 -9 -6 -14 3 -5 1 -9 -5 -9 -5 0 -12 4 -15 9 -6 9 10 19 29 19 6 0
4 -2 -3 -5z"/>
<path d="M3540 9129 c-170 -10 -225 -21 -301 -61 -100 -52 -161 -125 -229
-271 -40 -86 -97 -253 -89 -261 2 -2 76 2 164 10 702 63 1985 55 2439 -16 33
-5 62 -8 64 -5 5 5 -40 143 -77 233 -80 199 -186 308 -333 346 -35 9 -145 20
-247 26 -215 12 -1179 11 -1391 -1z m938 -111 c-4 -10 -61 -14 -231 -16 -198
-2 -227 0 -227 13 0 13 31 15 231 15 180 0 230 -3 227 -12z"/>
<path d="M4669 8346 c-94 -33 -144 -102 -158 -215 -9 -74 -34 -123 -84 -168
-12 -11 -132 -132 -267 -268 -135 -135 -257 -253 -272 -261 -15 -8 -57 -18
-94 -23 -86 -13 -149 -51 -188 -114 -33 -53 -44 -126 -27 -171 l12 -29 68 67
c74 71 105 81 149 50 26 -18 52 -64 52 -92 0 -11 -28 -49 -63 -86 -35 -37 -61
-69 -58 -70 42 -24 131 -10 193 30 61 39 88 90 95 175 3 41 12 86 19 100 17
35 522 548 573 584 30 20 59 29 114 35 96 11 144 31 185 78 49 56 76 168 53
225 -5 15 -16 8 -68 -48 -55 -58 -66 -65 -100 -65 -45 0 -77 20 -98 60 -27 53
-20 77 45 144 33 35 60 66 60 69 0 12 -103 7 -141 -7z"/>
<path d="M2850 8334 c-92 -33 -159 -94 -208 -188 -23 -45 -27 -62 -27 -151 0
-86 3 -107 24 -150 62 -125 177 -196 316 -196 204 0 355 162 343 370 -8 133
-81 247 -193 300 -66 32 -189 39 -255 15z m225 -66 c48 -25 93 -70 120 -120
27 -47 30 -62 29 -138 0 -71 -5 -93 -27 -136 -27 -53 -75 -101 -130 -131 -23
-13 -55 -18 -117 -18 -76 0 -91 3 -138 29 -96 54 -142 134 -142 250 0 83 20
134 76 196 45 49 100 80 163 89 49 7 132 -4 166 -21z"/>
<path d="M2896 8210 c-54 -17 -105 -61 -131 -113 -27 -55 -32 -83 -13 -71 8 5
10 -9 5 -54 -3 -34 -1 -65 4 -68 5 -3 10 25 10 63 2 128 17 135 19 8 l2 -120
14 120 c20 171 24 171 18 0 -3 -82 -3 -147 0 -144 3 2 12 71 20 153 8 81 17
150 20 154 3 3 7 -51 8 -119 l1 -124 9 115 c16 195 29 175 24 -35 -4 -197 5
-172 21 60 l8 110 5 -180 5 -180 15 180 15 180 5 -180 5 -180 8 125 c15 229
24 254 27 75 l3 -160 11 147 c7 81 15 150 19 154 4 4 8 -64 8 -152 l2 -159 8
130 c11 175 16 185 18 33 1 -78 5 -128 11 -128 6 0 10 31 11 73 0 39 4 90 8
112 7 34 9 25 11 -55 2 -74 4 -86 10 -55 4 22 8 33 9 25 2 -11 5 -9 10 5 17
40 -6 127 -46 183 -44 59 -149 94 -217 72z"/>
<path d="M2862 7835 c0 -16 2 -22 5 -12 2 9 2 23 0 30 -3 6 -5 -1 -5 -18z"/>
<path d="M5427 8326 c-90 -37 -144 -90 -188 -181 -25 -51 -29 -72 -29 -141 0
-93 10 -129 56 -200 66 -100 172 -157 294 -156 169 0 308 120 340 292 20 109
-19 220 -110 311 -98 98 -236 127 -363 75z m226 -48 c57 -17 139 -96 167 -160
27 -62 29 -166 6 -222 -24 -57 -73 -111 -129 -142 -46 -26 -62 -29 -137 -29
-74 0 -91 3 -131 27 -181 107 -199 358 -34 484 68 52 170 68 258 42z"/>
<path d="M5505 8207 c-106 -41 -157 -117 -154 -227 l2 -45 7 40 c7 39 7 39 9
-15 1 -30 6 -62 11 -70 7 -10 10 18 10 88 0 61 4 102 10 102 6 0 10 -47 10
-122 0 -67 2 -119 4 -117 3 3 6 64 7 137 1 73 6 135 10 138 5 3 10 -12 10 -33
1 -21 5 -87 9 -148 l7 -110 1 159 c1 88 5 156 10 152 4 -4 12 -83 18 -174 l11
-167 3 180 c3 197 11 177 27 -65 l8 -125 5 185 c6 205 14 191 27 -45 l8 -140
5 185 c3 102 7 172 9 155 1 -16 9 -97 16 -180 l14 -150 -5 140 c-2 77 0 158 4
180 6 32 10 4 21 -130 7 -93 14 -172 17 -174 2 -2 5 70 5 160 l2 164 9 -105
c4 -58 13 -127 18 -155 8 -47 9 -45 6 30 -1 44 0 109 4 145 l7 65 3 -65 c1
-36 6 -92 10 -125 6 -54 7 -48 9 55 2 75 5 108 11 95 5 -11 9 -40 10 -65 2
-77 19 -94 19 -20 1 80 -22 135 -73 177 -60 49 -130 64 -191 40z"/>
<path d="M3740 8263 c0 -3 29 -37 65 -74 69 -71 75 -90 50 -139 -19 -37 -88
-74 -121 -66 -13 4 -51 34 -83 69 -33 34 -63 59 -67 55 -4 -4 -9 -30 -12 -58
-4 -40 1 -60 21 -102 43 -86 113 -130 228 -143 90 -10 96 -13 170 -77 l71 -61
70 70 70 70 -62 59 c-74 70 -88 96 -101 177 -14 91 -25 119 -64 159 -50 51
-92 68 -169 68 -36 0 -66 -3 -66 -7z"/>
<path d="M6071 7635 c-2 -193 -13 -282 -41 -340 -43 -88 -20 -85 -557 -85
l-473 0 0 -40 0 -40 478 0 c476 0 478 0 522 23 89 44 121 183 100 432 -18 205
-28 223 -29 50z"/>
<path d="M2411 7641 c-14 -134 -10 -294 9 -375 11 -49 37 -85 81 -111 33 -19
55 -20 517 -23 l482 -3 0 41 0 40 -467 0 c-446 0 -469 1 -500 20 -18 10 -39
29 -47 42 -29 45 -48 161 -55 333 l-6 170 -14 -134z"/>
<path d="M4346 7518 l-65 -73 88 -90 89 -90 7 -71 c4 -46 16 -87 33 -120 46
-85 151 -136 239 -116 l33 7 -65 73 c-74 83 -81 112 -40 160 51 61 95 52 180
-38 58 -60 59 -61 72 -38 7 13 12 40 13 62 1 135 -96 228 -252 242 -92 8 -109
17 -187 98 -34 36 -67 66 -71 66 -5 0 -38 -33 -74 -72z"/>
<path d="M3280 7429 c-299 -7 -650 -28 -650 -39 0 -8 842 -25 894 -19 22 3 31
11 37 31 4 16 4 29 1 31 -4 1 -131 -1 -282 -4z"/>
<path d="M4940 7425 c0 -5 3 -20 6 -32 l6 -23 253 0 c321 0 681 11 663 20 -18
11 -536 40 -751 43 -113 1 -177 -2 -177 -8z"/>
<path d="M4090 7196 c0 -8 -3 -21 -6 -30 -5 -14 13 -16 160 -16 91 0 166 2
166 4 0 3 -4 16 -10 30 l-10 26 -150 0 c-123 0 -150 -3 -150 -14z"/>
<path d="M6971 6577 c2 -1 11 -8 20 -15 13 -9 16 -9 16 3 0 8 -9 15 -20 15
-11 0 -18 -1 -16 -3z"/>
<path d="M7032 6565 c-11 -13 -9 -15 8 -15 11 0 20 7 20 15 0 19 -11 19 -28 0z"/>
<path d="M4478 6185 c-56 -32 -63 -60 -66 -291 -4 -228 3 -280 42 -319 33 -33
103 -42 151 -19 66 31 75 65 75 309 0 226 -6 269 -45 305 -32 30 -117 38 -157
15z"/>
<path d="M1900 6069 l0 -122 69 6 c81 7 108 19 121 53 15 39 12 103 -7 135
-20 33 -63 49 -135 49 l-48 0 0 -121z"/>
<path d="M1900 5690 l0 -142 68 7 c118 12 142 36 142 142 0 55 -4 67 -29 95
-27 30 -34 33 -105 36 l-76 4 0 -142z"/>
<path d="M2626 6060 c-4 -19 -18 -84 -32 -145 -13 -60 -27 -120 -29 -132 -5
-22 -3 -23 71 -23 74 0 76 1 70 23 -3 12 -13 56 -22 97 -9 41 -25 107 -34 145
-16 68 -17 69 -24 35z"/>
<path d="M3730 5869 l0 -312 68 5 c94 8 117 21 149 86 26 54 27 61 28 236 0
200 -5 219 -65 270 -28 23 -40 26 -106 26 l-74 0 0 -311z"/>
<path d="M6516 6042 c-4 -26 -18 -93 -32 -150 -13 -57 -24 -110 -24 -118 0
-11 17 -14 76 -14 67 0 75 2 70 18 -10 34 -44 178 -56 240 -7 34 -16 65 -20
67 -4 3 -11 -17 -14 -43z"/>
<path d="M3101 5156 c-14 -8 -28 -22 -32 -32 -4 -11 -8 -88 -8 -172 -1 -149 0
-153 24 -177 29 -30 77 -33 104 -6 26 26 34 86 30 231 -4 119 -5 122 -32 146
-32 27 -51 29 -86 10z"/>
<path d="M5587 5163 c-37 -10 -47 -54 -47 -213 0 -147 1 -152 25 -175 48 -49
117 -23 130 48 4 19 5 93 3 165 -3 116 -5 134 -23 151 -22 21 -60 32 -88 24z"/>
<path d="M3575 5148 c-3 -8 -5 -48 -3 -89 l3 -74 51 -3 c41 -2 54 1 70 19 25
28 27 111 2 135 -23 23 -116 32 -123 12z"/>
<path d="M6040 5061 l0 -101 40 0 c60 0 90 33 90 98 0 66 -21 90 -82 98 l-48
7 0 -102z"/>
<path d="M2130 9709 c-33 -13 -68 -47 -86 -81 -33 -64 1 -154 72 -189 71 -34
136 -15 188 54 27 37 27 117 0 154 -45 60 -118 86 -174 62z m122 -66 c40 -39
40 -103 -1 -144 -66 -65 -171 -20 -171 74 0 62 35 97 98 97 36 0 52 -6 74 -27z"/>
<path d="M6223 9695 c-79 -47 -94 -149 -32 -220 59 -67 142 -70 208 -7 78 75
59 186 -41 238 -40 21 -88 17 -135 -11z m144 -43 c32 -20 46 -76 29 -117 -39
-93 -168 -85 -195 13 -27 96 78 162 166 104z"/>
<path d="M1277 7605 c-45 -31 -67 -71 -67 -125 0 -51 20 -98 54 -129 36 -34
126 -40 176 -13 74 40 102 146 57 213 -54 80 -147 103 -220 54z m163 -40 c11
-10 25 -35 31 -56 10 -31 9 -43 -7 -76 -41 -82 -149 -91 -195 -16 -36 58 -13
138 46 164 30 13 103 4 125 -16z"/>
<path d="M7072 7614 c-147 -75 -98 -295 66 -297 96 -1 157 59 157 155 0 61
-17 94 -67 131 -36 27 -114 32 -156 11z m149 -60 c61 -58 26 -174 -57 -190
-72 -13 -134 42 -134 120 0 30 7 45 35 73 33 33 39 35 81 30 32 -3 54 -13 75
-33z"/>
<path d="M6841 6964 c0 -11 3 -14 6 -6 3 7 2 16 -1 19 -3 4 -6 -2 -5 -13z"/>
<path d="M6751 6884 c0 -11 3 -14 6 -6 3 7 2 16 -1 19 -3 4 -6 -2 -5 -13z"/>
<path d="M6831 6874 c0 -11 3 -14 6 -6 3 7 2 16 -1 19 -3 4 -6 -2 -5 -13z"/>
<path d="M6792 6860 c0 -14 2 -19 5 -12 2 6 2 18 0 25 -3 6 -5 1 -5 -13z"/>
<path d="M1590 6851 c0 -5 5 -13 10 -16 6 -3 10 -2 10 4 0 5 -4 13 -10 16 -5
3 -10 2 -10 -4z"/>
<path d="M7112 6780 c0 -14 2 -19 5 -12 2 6 2 18 0 25 -3 6 -5 1 -5 -13z"/>
<path d="M1201 6754 c0 -11 3 -14 6 -6 3 7 2 16 -1 19 -3 4 -6 -2 -5 -13z"/>
<path d="M1126 6725 c7 -17 34 -21 34 -4 0 5 -4 7 -10 4 -5 -3 -10 -1 -10 4 0
6 -4 11 -10 11 -5 0 -7 -7 -4 -15z"/>
<path d="M1171 6724 c0 -11 3 -14 6 -6 3 7 2 16 -1 19 -3 4 -6 -2 -5 -13z"/>
<path d="M7310 6691 c0 -6 4 -13 10 -16 6 -3 7 1 4 9 -7 18 -14 21 -14 7z"/>
<path d="M5378 4413 c7 -3 16 -2 19 1 4 3 -2 6 -13 5 -11 0 -14 -3 -6 -6z"/>
<path d="M3040 4320 c0 -5 5 -10 11 -10 5 0 7 5 4 10 -3 6 -8 10 -11 10 -2 0
-4 -4 -4 -10z"/>
<path d="M4180 4278 c-33 -17 -51 -35 -67 -68 -28 -54 -28 -82 -3 -137 53
-117 218 -118 278 -3 71 137 -71 279 -208 208z m146 -52 c29 -29 34 -41 34
-81 0 -38 -5 -52 -29 -75 -16 -16 -40 -32 -55 -36 -38 -9 -74 3 -107 36 -52
51 -32 153 35 180 47 19 87 11 122 -24z"/>
<path d="M5456 4242 c-3 -5 1 -9 9 -9 8 0 12 4 9 9 -3 4 -7 8 -9 8 -2 0 -6 -4
-9 -8z"/>
<path d="M3005 4220 c3 -5 8 -10 11 -10 2 0 4 5 4 10 0 6 -5 10 -11 10 -5 0
-7 -4 -4 -10z"/>
<path d="M3697 3583 c-28 -4 -28 -4 43 -84 77 -88 84 -111 50 -166 -23 -39
-67 -63 -115 -63 -30 0 -44 9 -100 67 -36 37 -68 64 -71 60 -12 -12 -6 -132 9
-167 18 -41 78 -101 126 -125 20 -10 73 -21 123 -25 102 -8 96 -5 225 -139
l91 -96 87 86 86 85 -96 94 c-125 122 -132 134 -145 216 -6 38 -16 84 -22 103
-14 46 -75 111 -123 132 -43 19 -123 29 -168 22z"/>
<path d="M4767 3577 c-86 -28 -149 -106 -167 -208 -6 -34 -20 -79 -30 -100
-20 -38 -620 -632 -681 -674 -20 -13 -65 -29 -100 -35 -189 -35 -269 -115
-269 -268 0 -46 4 -72 11 -72 6 0 39 29 74 65 58 59 68 65 104 65 76 0 141
-85 118 -154 -5 -15 -36 -56 -68 -91 -33 -34 -59 -66 -59 -70 0 -16 135 2 176
23 78 40 143 139 144 218 0 85 32 125 363 449 194 191 326 313 352 325 29 14
62 20 111 20 158 1 264 103 264 255 l0 68 -69 -66 c-65 -63 -72 -67 -115 -67
-39 0 -52 6 -83 33 -31 29 -37 41 -41 88 -4 54 -3 56 39 96 24 23 57 53 73 66
16 14 24 27 18 31 -21 13 -128 15 -165 3z"/>
<path d="M4411 2681 c-62 -57 -82 -81 -76 -92 5 -8 33 -39 62 -70 104 -109
118 -134 133 -241 6 -38 19 -86 29 -107 29 -55 92 -108 152 -125 55 -17 139
-22 139 -8 0 4 -27 38 -61 75 -74 81 -84 122 -47 176 29 44 87 74 122 65 14
-3 55 -37 90 -75 l64 -69 6 31 c10 50 7 93 -9 138 -32 92 -92 138 -208 161
-95 19 -123 36 -215 130 -48 50 -90 90 -92 90 -3 0 -43 -36 -89 -79z"/>
<path d="M4352 2325 c-40 -30 -79 -55 -88 -55 -8 0 -46 23 -82 50 l-67 51 -13
-31 c-20 -50 -26 -118 -12 -135 11 -14 139 -112 166 -128 7 -4 58 28 114 69
l102 77 -6 48 c-8 55 -25 109 -35 109 -4 0 -40 -25 -79 -55z"/>
</g>
</svg>
